/* XPM */
static char *s70aa5N1KfJBshb_png[] = {
/* columns rows colors chars-per-pixel */
"64 64 155 2 ",
"   c #040404",
".  c #0C0706",
"X  c #0D0B0B",
"o  c #110D0D",
"O  c #11100F",
"+  c #130F10",
"@  c #0F1111",
"#  c #131414",
"$  c #191515",
"%  c #181817",
"&  c #151718",
"*  c #161819",
"=  c #1B1C1C",
"-  c #221C13",
";  c #2F1C17",
":  c #211E1E",
">  c #1E201F",
",  c #3A2000",
"<  c #252215",
"1  c #24211F",
"2  c #28221F",
"3  c #3E3D1D",
"4  c #1D1F20",
"5  c #251F21",
"6  c #1D2223",
"7  c #1F2628",
"8  c #222424",
"9  c #292524",
"0  c #2A2827",
"q  c #252728",
"w  c #26292A",
"e  c #2B2B2B",
"r  c #332323",
"t  c #312E22",
"y  c #322D2B",
"u  c #382B2F",
"i  c #2F302F",
"p  c #30302F",
"a  c #38362A",
"s  c #272E30",
"d  c #2D2F30",
"f  c #2D3132",
"g  c #2F3638",
"h  c #333434",
"j  c #383537",
"k  c #353738",
"l  c #333A3C",
"z  c #3D3C3E",
"x  c #422D00",
"c  c #442A09",
"v  c #5A2500",
"b  c #4D360B",
"n  c #4F390A",
"m  c #563E0F",
"M  c #403F1F",
"N  c #652F02",
"B  c #6C3D00",
"V  c #693509",
"C  c #403F20",
"Z  c #413533",
"A  c #413F3C",
"S  c #4B3F38",
"D  c #594315",
"F  c #7C4D00",
"G  c #775000",
"H  c #795203",
"J  c #7C560A",
"K  c #7E590D",
"L  c #634A1A",
"P  c #60591C",
"I  c #414021",
"U  c #444324",
"Y  c #46452A",
"T  c #4B4A2D",
"R  c #5E4C20",
"E  c #4E4D30",
"W  c #40403F",
"Q  c #504F32",
"!  c #525134",
"~  c #624F20",
"^  c #6C5727",
"/  c #6A6326",
"(  c #726032",
")  c #7B6B3E",
"_  c #373F41",
"`  c #383F40",
"'  c #3F4646",
"]  c #3F4647",
"[  c #3B4648",
"{  c #444444",
"}  c #484644",
"|  c #474848",
" . c #464D4F",
".. c #4B4B4C",
"X. c #5B5641",
"o. c #455052",
"O. c #4C575A",
"+. c #4D5C5F",
"@. c #545555",
"#. c #575859",
"$. c #5A5A5A",
"%. c #636348",
"&. c #60605F",
"*. c #5D5F60",
"=. c #546366",
"-. c #5F6567",
";. c #5A6D71",
":. c #656565",
">. c #676869",
",. c #6E6E6E",
"<. c #706D6B",
"1. c #75736B",
"2. c #62797E",
"3. c #757575",
"4. c #777879",
"5. c #7B7C7C",
"6. c #855A00",
"7. c #89590A",
"8. c #92660A",
"9. c #8C7402",
"0. c #8E7708",
"q. c #926517",
"w. c #9F7315",
"e. c #886924",
"r. c #A77E21",
"t. c #998936",
"y. c #B08A2E",
"u. c #B09327",
"i. c #B89E33",
"p. c #C1B339",
"a. c #8F8F7C",
"s. c #848585",
"d. c #888887",
"f. c #878788",
"g. c #8C8D8D",
"h. c #929A83",
"j. c #939B84",
"k. c #949C85",
"l. c #9C9C8C",
"z. c #959494",
"x. c #989796",
"c. c #969999",
"v. c #9B9B9B",
"b. c #A0A09F",
"n. c #A3A3A3",
"m. c #A7AAAB",
"M. c #ACADAD",
"N. c #ADB0B0",
"B. c #B5B5B5",
"V. c #B8B8B7",
"C. c #B7B8B8",
"Z. c #BABABA",
"A. c #C5C5BB",
"S. c #BDC0C0",
"D. c #C0C3C3",
/* pixels */
"]  . . .] ^ 8.6.6.b = 4 = * = & & # & # @ @     # # # # # # @ # @ # @ # # # # #     * = 4 X n w.w.w.(  . . . . . . . . . . . . .",
"` ` ` ` ` R 6.6.6.b = = = = * & # # # # @ @     # @ @ @ @ @ @ @ @ @ @ # # # # #   . = = = @ n 8.6.6.R ` ` ` ` ` ` ` ` ` ` ` ` ` ",
"` ` ` ` ` R 6.6.F c = 6 = = * & & # # @ # @     # @ 6 @ @ 6 6 6 6 # @ # # 6 # &   . = = 6 # n 8.6.6.R ` ` ` ` ` ` ` ` ` ` ` ` ` ",
"u j ` ` ` R 6.6.6.b = 8 6 = = * # < < # # @     # X @ @ 6 X X X X X X # o # # &   . = = : % n 8.6.6.R ` ` y ; ; ; ; ; ; ; ; ; ; ",
"` ` ` ` ` R 6.6.F c = 8 6 = = * # < M # # @     # @ @ 6 X X X X X X X o # # # & . # = 6 : 2 n 8.6.6.R ` y r j ` ` ` ` ` ` ` ` ` ",
"` ` ] ] ` R 6.6.F c = q 8 = = * # o # # # @     # @ 6 X X X v B B v X o o & # & X . 6 8 5 # n 8.6.6.R ` y y ` ` ` ` ` ` ` ` ` ` ",
"` ` ] ] ` R 6.6.F c = q 8 6 = = & & # # # @     # @ 6 X X v B B B B v o o 6 & & . @ = 6 q & n 8.6.6.R ` y y ` ` ` ` ` ` ` ` ` ` ",
" . .O.O. .( w.w.8.m 0 0 q 8 6 = = * & & # # .   # @ 6 o X B B 9.9.B B X o 6 & * X X 8 q w 8 / u.w.w.(  .z z  . . . . . . . . . .",
"` ` ] ] ` R 6.6.F c > w 8 6 = = * & # # # @     # @ 6 X X B B h.h.B B o o 6 & * . # 6 8 q & n 8.6.6.R ` y y ` ` ` ` ` ` ` ` ` ` ",
" . .O.O. .( w.w.8.m 0 e w 8 8 = = * & & # # .   6 # 3 @ @ G G h.h.G G # # I * = X X 8 q e 8 / u.w.w.(  .] ]  . . . . . . . . . .",
" . .=.=. .( w.w.8.b 8 e w 8 8 = = * * & # #     # @ 6 X X B B h.h.B B X o 6 & * . & 8 q e & P u.w.w.(  .] ]  . . . . . . . . . .",
" . .O.O. .( w.w.8.b 8 e 0 q 8 4 = = * & & # .   6 # 3 @ @ G G h.h.G G # # I = = # # 8 q e & P u.w.w.(  . . . . . . . . . . . . .",
" . .=.=. .( w.w.8.m e e 0 q 8 4 = = * & & # X   6 # 3 # # G G h.h.G G @ # I * = # & 8 q e 8 / u.w.w.(  . . .O.=.=.;.;.;.2.2.2.;.",
" . .=.=. .( w.w.8.m e d e q 8 6 4 = = * * & X   6 & M # @ G G h.h.G G # # I * = # # 8 q 0 8 / u.w.w.(  . . . . . . . . . . . . .",
" . .=.=. .( w.w.8.m e f e w q 8 6 = = = * * X . 6 & M # # G G h.h.G G # # C * = X # 8 q w 8 / u.w.w.(  . . . . . . . . . . . . .",
" . .=.=. .( w.w.8.b 8 h e e q 8 8 4 = = = = X . 7 * I # # G G h.h.G G # # C * = # # 8 8 w 6 ~ r.w.w.w.w.w.w.w.w.w.w.w.w.w.w.e.X.",
" . .=.=. .( w.w.8.m e h d e w q 8 8 6 = = = X X 7 * C & # G G j.h.G G # # C * = X # 8 8 q = / u.w.w.w.w.w.w.w.w.w.w.w.w.w.w.w.w.",
" .O.;.=. .( w.w.w.D q h h e e w q 8 8 6 4 = # X w = I & & G G h.h.G G @ # C * = # # 6 8 q = ~ r.w.w.w.w.w.w.w.w.w.w.w.w.w.w.w.w.",
"2.2.=. . .( w.w.8.m y k h h e e 0 q q 8 8 6 # # 6 = I & & G G j.h.G G # @ M * = X # 6 8 q = ~ y.y.y.y.y.y.y.r.r.r.r.r.w.w.w.w.w.",
" . . . . . .) r.w.L 0 k k h h d e e w q q 8 % & e = U * & H H j.h.G G # # M * * O # = 6 8 q 9 2 2 2 2 2 2 2 = = = # # . x 8.w.w.",
" . . . .] ( r.w.w.8.m e e e e e 0 0 8 8 8 8 = # = = U * * J H j.j.G G # # 3 & * . O = 4 8 8 q 9 9 0 0 e e 0 0 0 e e 0 0 O 8 ( ( ",
"` ]  . .O.) w.w.w.w.w.w.w.w.w.w.w.w.w.w.(  . .] w = Y = * J H j.j.G G # # M & * X o = = 4 8 8 q w 0 e e f h h k k j z z 6 8  .( ",
" . .] ]  .X.e.w.w.w.w.w.w.w.w.w.w.w.w.( ( (  . .f = Y = = J H k.j.G G @ @ M & * . o = = = 6 8 8 q q w 0 e e f h h k k z = 8  . .",
"] ] ]  . . .( w.w.w.w.w.w.w.w.w.w.w.w.w.( ( ( ] w = T = = J J k.j.G G # # 3 # & . X = = = = 4 8 8 8 8 q w e e d f h k k = f O.( ",
"o.] ] o.O. . .X.e.w.w.w.w.w.w.w.w.w.w.w.w.(  . .f = T = = J J k.j.G G @ @ 3 & & . X * = = = = = 4 6 8 8 8 q w e e f h k = f O. .",
"] ] +.=.O.O. . . . . . . . . . . . . . .( w.( ] w = E 6 = J J k.j.G G # @ 3 # &   X * * = = = = = 4 4 6 8 8 q w e e f h = f O.( ",
"] o.O. . .O.O. . . . . . . . . . . . . .( (  .] w = E 8 = K J k.k.G G @ @ 3 # # X . & * * * = = = = = = 4 6 8 q w e d h = l =. .",
"]  . . . . .] j u u u u u j ` ` ]  . . . .( ( ] w 6 Q 8 = K J k.k.G G # @ 3 # #   . # & & * * * = = = = = 4 6 8 q 0 e h = l =.( ",
" . . . . . . . . . . . . . . . . . . . .( (  .] w 8 Q 8 6 K J k.k.G G @ @ 3 # # . . # # & & & * * * * = = = 4 6 8 w e f = l =. .",
" . . . . . . . . . . . . . . . . .O.O. . . . .] w 8 l 8 6 K J k.k.G G @ @ 3 # #   . # # # & & & & & & * = = = 6 8 q e d 8 l O. .",
" . . . . . . . . . . . . . . . . .O.O. .( (  .] p 0 ! 8 6 K J 0.0.H G @ @ 3 # # . . # # # # # & # # & & * = = 6 8 q 0 e 8 [ =. .",
" . . . . . . . . . . . . . . . . .O.O. . . . .] w 8 l q 8 V J J H G N # @ 3 # # . . # # # # # # # # & & * = = = 8 q 0 e e ] O. .",
" . . . . . . . . . . . . . . . . .O.O. . . . .] p 0 l q 6 = V J H N # # @ 3 # # . . # # X 3 < # # # # & & * = = 8 8 w e 8 l O. .",
" . . . . . . . . . . . . . . . . .=.=. . . . . .f 8 e g 8 = = * & # # # 3 # # # . . # # X < - # # # # & * * = = 8 8 w e 0 ] O. .",
" .] j u u z  . . . . . . . . . . .=.=. .( (  .] p 0 e w f = = * & # # 3 # # # # . . # # X X # # # # # & * * = = 8 q w e 8 l O. .",
"] j Z S A ` ]  . . . . . . . . .O.;.=. . . . . .f 8 a w 8 s U w I C M # # - # # . . # # # # # # # # & & * = = 4 8 q w e 0 ] O. .",
"j Z S }  .] o.;.2.2.2.2.2.2.2.2.2.=. . .( ( ( ( k 9 e q 8 0 z #.3.f.>.& X # # # X X 6 6 & 6 6 6 6 6 7 * 7 = w 6 f q g l i ] O. .",
"Z S } } }  .O.O. . . . . . . . . . . . . .( (  .f | f.c.3.M.Z.Z.Z.Z.s.& & & & & X                         . . X # & = = 8 ] O. .",
"j A S }  .=.;.O. . . . . . .) ( ]  . . .( ( ( ( k 3.D.N._ c.Z.Z.Z.Z.m.6 & 6 * &                         . . X # # & = = 8 k  . .",
"X.X. .X.t.i.r.w.w.w.w.w.w.r.q.F 8.w.w.w.( ( (  .f :.B.e X ,.B.B.B.B.B.X               X X X X X # X . X # # & & = = = q 9 k  .( ",
"u.p.p.i.r.w.w.w.w.w.w.r.i.P , 7.w.w.w.w.w.(  . .k <.:.# X @.B.B.B.B.B.q         . X . # & # # & & # X % = & & = 8 = = e 0 k ( ( ",
"w.w.w.w.w.w.w.w.w.r.i.P . # b 8.w.w.w.w.( ( (  .d ..& & & z B.B.B.B.B.z X . X X # # X & & # & % = & # = = = = 1 8 8 8 e 0 ^ ) ( ",
"w.w.w.w.w.r.y.i.p.P . = = = = b 6.8.r.r.w.(  .] y : # = & h B.V.V.B.z.# # X O & & # X = = & = = = = & = = = = 8 0 q 8 e e ^ r.w.",
"w.w.8.b # = 2 = = 2 2 = = = = O         . # = 2 1 = & & = x.B.V.V.n.= # # # # % = & & = = = = 8 8 = = 8 8 : 8 0 0 0 0 y 9 L w.w.",
"w.w.D # 0 e e e y 0 8 { x.x.x.x.#.1 = 8 8 : = : : & X & ,.B.B.V.B.{   # # # # O = = = 1 1 = = = = = & % % % % = : : : 9 m 8.w.w.",
"w.w.D = k h e e e 0 j M.Z.Z.Z.M.h 8 1 8 8 = = = = & # ..V.B.B.V.,.X X # & & # n w.w.w.w.w.w.w.w.w.w.w.w.w.w.w.w.w.w.w.w.w.w.w.w.",
"w.8.b % h e 0 e 0 q s.Z.Z.Z.B.W 8 = = 1 : = % = = & 8 n.V.B.B.n.# X . & & & # n w.w.w.w.w.w.w.w.w.w.w.w.w.w.w.w.w.w.w.w.w.w.w.w.",
"w.w.D & h 0 0 0 q >.Z.Z.Z.Z.:.= = = = = = & & & & # g.B.B.B.B.q O X X 0 { & # D r.w.w.w.w.w.w.w.w.w.w.w.w.w.w.w.w.w.w.w.w.w.w.w.",
"w.8.b & e 0 q q k B.Z.Z.Z.g.= = = & & % % # # & # #.B.B.B.B.v.O # X X g.&.= & n w.w.w.w.w.w.w.w.w.w.w.w.w.w.w.w.w.w.w.w.w.w.e.X.",
"w.8.b & e q 8 q b.Z.Z.Z.n.0 & & & # = z @.,.s.# # 5.B.B.B.B.B.# O X $.Z.5.= & D r.w.w.(  . . . . . . . . . . . . . . . . . . . .",
"w.8.b & 0 q 1 3.Z.Z.Z.Z.$.| $.5.v.M.B.V.V.B.B.0 # $.B.B.B.B.B.0 # e B.Z.v.= & P u.w.w.(  . . . . . . . . . . . . . . . . . . . .",
"w.8.m 8 q 8 #.Z.Z.Z.B.Z.B.B.B.B.B.B.B.B.B.B.B.| . { B.B.B.B.B.| 8 n.B.Z.B.= = / u.w.w.(  . .z u u u u u u u u u j j j ` ` ` ` ` ",
"w.8.b # 0 1 :.Z.Z.Z.B.B.V.B.B.B.B.B.B.B.B.B.B.$.X = B.B.B.B.B.&.3.B.B.n.d.q = P u.w.w.(  .z j ]  . . . . . . . . . . . . . . . .",
"w.8.m 1 8 = ..Z.Z.B.B.V.B.B.B.B.B.B.B.B.B.B.B.3.. . m.B.B.v.5.$.| 0 & = = = = ~ r.w.w.(  .z z  . . . . . . . . . . . . . . . . .",
"w.8.b # 8 = 0 Z.Z.B.B.B.B.B.B.M.z.,.n.B.B.B.B.x.    e =       X X . X & = = & P u.w.w.(  .z z  . . . . . . . . . . . . . . . . .",
"w.7.b q l g f C.S.M.c.a.-.%.e I * 3 l.A.A.A.A.V.3 3 3 3 3 3 C I I U Y T T ! Y D w.w.w.(  .z z  . . . . . . . . . . . . . . . . .",
"w.8.m 8 e w 8 { w = = * & # # # # # >.Z.Z.Z.Z.Z.4 @ # # # # & * = = 6 8 q e w ~ r.w.w.(  .] ]  . . . . . . . . . . . . . . . . .",
"w.7.b 8 e w 8 = = = = * & # # # # # @.Z.C.Z.Z.C.z # # # # # & * = = 6 8 q 0 q D w.w.w.(  .] ]  . . . . . . . . . . . . . . . . .",
"w.7.c = q q 8 6 = = * 6 # # # # # # z Z.C.Z.Z.C.@.# # t # # & * = h z 1.| 4.>.D w.w.w.(  .] ]  . . . . . . . . . . . . . . . . .",
"w.7.b 1 q q 8 4 = = # # # # # # # # = M.c.5.$.| = # + @.@ e ..5.,.3.| ,.s.s.:.D w.w.w.(  . . . . . . . . . . . . . . . . . . . .",
"w.7.c = w 8 8 4 = = + o & # # # # # X o # # # @ # # X $.# # g.$.#.s.| v.4.5.:.D w.w.w.(  . . .O.=.=.=.=.=.;.2.2.2.2.;.;.;.;.2.2.",
"w.7.b 1 q 8 8 4 = * * & # # # # # # # # # # @ # # # # *.# # #.{ | s.z | | f q D w.w.w.(  . . . . . . . . . . . . . . . . . . . .",
"w.7.b 1 = $ $ $ o # o o o o o X X X . X . X   X   X   #.    = & + # & $ = = 1 L w.w.w.(  . . . . . . . . . . . . . . . . . . . .",
"; - # # # X . .                                       { X           . . X # # # - - # # # 5 5 5 u u u u u u u u u r r r r u r r "
};
