/* XPM */
static char *s94ao9kZcSr4Gtc_png[] = {
/* columns rows colors chars-per-pixel */
"64 64 84 1 ",
"  c #030303",
". c #0C0706",
"X c #0C0B0B",
"o c #110D0E",
"O c #12100F",
"+ c #130F10",
"@ c #0F1111",
"# c #131414",
"$ c #191616",
"% c #181817",
"& c #151718",
"* c #1B1718",
"= c #161819",
"- c #1A1B1C",
"; c #221F12",
": c #2F1C17",
"> c #211D1D",
", c #252215",
"< c #23211E",
"1 c #28221F",
"2 c #3E3D1D",
"3 c #1D1F20",
"4 c #1D2123",
"5 c #1E2628",
"6 c #232424",
"7 c #292624",
"8 c #292827",
"9 c #262728",
"0 c #25292A",
"q c #2A2B2C",
"w c #302E2D",
"e c #382B2F",
"r c #343125",
"t c #3B382D",
"y c #272E30",
"u c #2D2F30",
"i c #2D3132",
"p c #323334",
"a c #333738",
"s c #34393B",
"d c #3A3C3C",
"f c #5A2500",
"g c #403F1F",
"h c #663103",
"j c #6C3D00",
"k c #6C380D",
"l c #6D3B10",
"z c #403F20",
"x c #4B3F38",
"c c #744000",
"v c #775000",
"b c #785101",
"n c #795304",
"m c #7A5406",
"M c #7B5508",
"N c #7D570B",
"B c #7D580B",
"V c #7D590D",
"C c #414021",
"Z c #444324",
"A c #464526",
"S c #474628",
"D c #484729",
"F c #4B4A2C",
"G c #4C4B2E",
"H c #4F4E31",
"J c #525134",
"K c #716033",
"L c #383F40",
"P c #3E3F40",
"I c #464D4F",
"U c #536265",
"Y c #62797E",
"T c #855A00",
"R c #805B10",
"E c #8B7300",
"W c #8D7606",
"Q c #8F7809",
"! c #9F7315",
"~ c #B08A2E",
"^ c #C1B339",
"/ c #929A83",
"( c #939B84",
") c #949C85",
/* pixels */
"LIIIIL!TTT#4---&=#&#@@  ######@#@######& .-- !!!!IIIIIIIIIIIIIII",
"LLLLLLTTTT#4--=&#####@  #@@@@@@@@@####&=..-- !TTTLLLLLLLLLLLLLLL",
"LLLLLLTTTc#6---=&####@  #@4@@4444####4&=.X-6 !TTTLLLLLLLLLLLLLLL",
"eeLLLLTTTT#64--=#,,##@  #X@@4XXXXXo#o#&=XX46 !TTTLLL::::::::::::",
"LLLLLLTTTc#66---#,g##@  #@@4XXXXXooo&&&=X&49 !TTTLL:eLLLLLLLLLLL",
"LLLILLTTTc#964--#####@  #@4XXXfjjfooo==-#@69 !TTTLL:LLLLLLLLLLLL",
"LLLILLTTTc#064--=&###@  #@4XXfjjjjfo+5=-X&60 !TTTLL:LLLLLLLLLLLL",
"IIIUII!!!T1q064---=&##. #@4oXjjEEjjo+5=-##9q#^!!!IIeIIIIIIIIIIII",
"LLLILLTTTc#q96--=&###@  #@4XXjj//jjo+5=-X&9q !TTTLL:LLLLLLLLLLLL",
"IIIUII!!!T1uq963--=&##. 4#2@@vv//vb#&C-3&#0q#^!!!IILIIIIIIIIIIII",
"IIIYII!!!T#qq963--=&&#  #@4XXjj//jjo+0=-#-0q ^!!!IILIIIIIIIIIIII",
"IIIUII!!!T#uq964--=&=#. 4#2@@vv//vb##C-3%-0q ^!!!IIIIIIIIIIIIIII",
"IIIYII!!!T1iq964--==&#X 4#2##vv//vb#&C-3&-0q#^!!!IIIIUUUYUYYYYUI",
"IIIYII!!!T1iq0964---=&X 4&g#@bv//vb##C--$-0q#^!!!IIIIIIIIIIIIIIU",
"IIIYII!!!T1pqq964----=X.4&g##bb//vb##C--#-0q#^!!!IIIIIIIIIIIIIII",
"IIIYII!!!T#puq0664---=X.5=C##bb//vb##C--&&9q#~!!!!!!!!!!!!!!!KII",
"IIIYII!!!T1ppq09664---XX0=C##bb((bb##C--#-9q#^!!!!!!!!!!!!!!!!!I",
"IIUYII!!!!#apuqq96644-#X0-C&&bb//bb##C--&$60#~!!!!!!!!!!!!!!!!!K",
"YYYIII!!!T1sppuqq99666##6-Z=&nb(/bb##C--#&69#~~~~~~~~!~!~!!!!!!!",
"IIIIIII~!!1pappiqq0096-&y3A==mn(/bb##C--#&66611111111#1### T!!!!",
"IIIIIL~!!!T7qqqqq88-9->&--S-=mn)(bb##C=-X#4699888qqq9w9wqq9 I!I!",
"LLIIIU!!!!!!!!!!!!!!!IIIL#D--mm)(bb##C=-##346900qqiipaasddP II!!",
"IIILIIK!!!!!!!!!!!!!I!III#F--Mm))bv##z&-X#--46690qqqippasdd III!",
"LILIIII!!!!!!!!!!!!!!I!IL#G4-NM)(bv##g&=.O--34666900qquppsd UI!I",
"ULILUIIIK!!!!!!!!!!!!!III#H4-BN))bb@#2&=.o----4446690qqupps UII!",
"LILYIUIIIIIIIIIIIIIII!!IL#H64VN))bb##2#&.X------346690qqipa UI!I",
"ILUIIIUIIIIIIIIIIIIII!IIL#J64VN))bb##2##XX==------34669qqip YII!",
"LIIIIIILeeeeeeLLLIIIII!IL#J66VN))bb##2## X&&===----34660qip YI!I",
"IIIIIIIIIIIIIIIIIIIII!IIL#J96VV))nb#@2##..&&&&===----469qqp YIII",
"IIIIIIIIIIIIIIIIIIUIIIIIL#s96RV))nb#@2## .###&&&&==--3660qi#UIII",
"IIIIIIIIIIIIIIIIIIUII!IIL1J96RVQWnb#@2##..####&&#&=---469qi#YIII",
"IIIIIIIIIIIIIIIIIIUIIIIIL#s06lVNmnh#@2##..#######&&=--469qi1UIII",
"IIIIIIIIIIIIIIIIIIUIIIIIL1s064kMmh##@2##..##X2,###&=--369qu#UIII",
"IIIIIIIIIIIIIIIIIIYIIIIII#ua64--=###2###..##X,;##&&=--369qq1UIII",
"IILeeeIIIIIIIIIIIIYII!IIL1uqi4-==##2####..##XX###&&=--469qu#UII!",
"ILexxLLIIIIIIIIIIUYIIIIII#tq9iS0CCz&#,##..#######===--469qi1UIII",
"LexxIILUYYYYYYYYYYIII!I!I1qq963--=&&o&#&XX44&444445-0-y6iqs1UII!",
"exxIxIIUIIIIIIIIIIIIII!II#q0963--=&=&#&&X          ..XX#&--1UIII",
"eLxxIIYUIIIIIII~LIIII!I!I1aiiy000554&4=&         ...XX#&--61III!",
"IKIIK^~!!!!!!!~cT!!!!I!II#-&#X...        ..X#XXX#X.#&&--6661II!I",
"!^^^~!!!!!!!~^ c!!!!!!III1-&#X...      ..@.&&##&&#X----69991I!I!",
"!!!!!!!!!!~^ ##T!!!!!I!II#&-&#oX#X.XXXXo##X&%&&%-&#----98991~I!!",
"!!!!!!~~^^ #1#1#TT!~!!IId1&--####X ####&-&#-------&66>68qqq1~!!!",
"!!!T##11#111#1#1     ##11<-%%##&##X#&&&----->--66--6969qqq81!!!!",
"!!!#-qwqwq88q98996-66-6-<%o%%####X.&&.&1&1>1&1&1%&&--%-7-71T!!!!",
"!!!#qpwpqq9qq99q86<66----&#&&#X###X&% !!!!!!!!!!!!!!!!!!!!!!!!!!",
"!!T#9qqqq9-966666--6<----&.&&#X###X-- !!!!!!!!!!!!!!!!!!!!!!!!!K",
"!!!#9qqq86-6<--->----&&%&#X##X#&###-- ~!!!!!!!!!!!!!!!!!!!!!!!!I",
"!!T#6q999-----%--&&%%&#&&#X##X##&##-- !!!!!!!!!!!!!!!!!!!!!!!KII",
"!!T#6q996---&&#&&##&#####X.#XXX#&#&->.~!!!IIIIIIIIIIIIIIIIIIIIII",
"!!T#6966<-&=&##&#OX##XXO#X.X@XX#&&&-6.^!!!IIIIIIIIIIIIIIIIIIIIIL",
"!!T16966-&X&#OXOXX #XXXO.. XXXX##&#--&^!!!IIIeeeeeeeeeeLeLLLLLLI",
"!!T#-6---####XXXX..XX..XX. .XXX#&#&-6.^!!!IIeLIIIIIIIIIIIIIIIIII",
"!!T1>6--=#.#XX.X.. X.. X.  X.XX##&#<6%~!!!IIeIIIIIIIIIIIIIIIIIII",
"!!T#--&-&X.X.. ..  ..  ..  ... ##X#-6.^!!!IIeIIIIIIIIIIIIIIIIIII",
"!!c1iaiiy60C4z-2=22222222222gCCAADGHJ1!!!!IIeIIIIIIIIIIIIIIIIIII",
"!!T10q96---=&&###########@##&=---660q-~!!!IILIIIIIIIIIIIIIIIIIII",
"!!c10q944--==&#########@@###&=---460q-!!!!IILIIIIIIIIIIIIIIIIIII",
"!!c#60963--5#&#####,@##@###,#&---46r0-!!!!IILIIIIIIIIIIIIIIIIIII",
"!!c16964--########X@@#@#@#X##&=--4-69-!!!!IIIIIIIIIIIIIIIIIIIIII",
"!!c#6964--#+&#####XX###@##Xo#&=--4->0-!!!!IIIIUUUUUUYYYYYUYUYYYY",
"!!c16964---=&#########@######&=---466-!!!!IIIIIIIIIIIIIIIIIIIIII",
"!!c1>-$$O#o+oooXXX.X.X X X    +X#$*->1!!!!IIIIIIIIIIIIIIIIIIIIII",
"::###XX..                        ..X###:####e#eeeeeeeeee:e:ee:e:"
};
