/* XPM */
static char *s94asCAPbrN5Bzv_png[] = {
/* columns rows colors chars-per-pixel */
"64 64 26 1 ",
"  c black",
". c #170606",
"X c #1B0808",
"o c #200707",
"O c #2E0E0F",
"+ c #23120C",
"@ c #271911",
"# c #2A1814",
"$ c #3C1313",
"% c #3E1A15",
"& c #2E221C",
"* c #3B2921",
"= c #451816",
"- c #491C19",
"; c #4D1C1A",
": c #4D1F1D",
"> c #472019",
", c #5B231E",
"< c #463124",
"1 c #612723",
"2 c #68312E",
"3 c #74362A",
"4 c #693433",
"5 c #713633",
"6 c #7E3C34",
"7 c #844241",
/* pixels */
"*&**<<*<****&&&&&*&*<<<*<********&*&&&&*****&&&&&*&*&&<*<*******",
",;=$$<17455,,511,;=$$<37455,,=22,;=$$*17433,,,,,,;=$&<*176111=22",
";=;=o*6:;;;;,1;;;=;=o*6:;;;,:2:;;=;=o&6:;;;,::;;;:;=o*<3:;;;,2:;",
";;=;O*1;;;;::;;;;;=;O&1;;;,:;:;;;;=;O*1;;;,:;;;;:;;;O<12;;;:::;;",
";;;;o*$=;;;,$;;;;;;;o*$=;;;,$;;;;;;;o&1;;1;;:,$$$=;=o&;=;;;,$;;;",
";;;=o*=;;;;$$;;;;;;=o*=;;,$$$;;;;;;=o*=;;,$$;$=$;;==o&=;=;;$$;;;",
"$;;$o*=$$;=OO;;$$;;$ *=$$$$$=;;$$;;$o*=$$$$=;;$;$=;$o&$=;;=OO;;$",
"OOooO<$oooooOOOOOOo O< oooOoO  oOOooO<$oooOOOOOOOOooO&$oOoooOOOO",
"&&*&**&&**&*&&&&&&*&**&<&<*&&&&*******&&&&&*&**&&*&********&***&",
"131111$1-$$$==$<,1,,,,O==;;=$OO*1766211--$$$==<<1732212,,,,;=$$<",
"2:;;;;;,1;$==;o*1:=======:=:=$ &3,,,;;,1;;$=;$o<3;;1:;::;;;:;=o*",
"1;;,;;;;;;;=;=o<,==;==========o*,;,;:,;;=O;;;$o*==;=;;;;;;:;;;O<",
"$;=;;;;=;;$=;=O*,:======OOO$=$ *,::;:;;$  1;;=o&$;=;;;;,$$$=;=o&",
"$=;=;=;;;=$;=;o*$======$$O==$$ <;:;:;;==OO1;;;O&$=;=;;;$=$;;==o*",
"$$=;=;=;;=$==$o*O$=OOO=OO=O$=O *=;;;;$;;13;;;;o&$$=;=;;;$;$=;$o&",
"$oooOOOOOOOoo O<O o ooo oooo  o<*oOoOOoO.OOoo O&$oooOoOOOOOOooO*",
"&&&&&*&*<<<*<********&*&&&&*****&&&&&*&*&&<*<********&**<<*<****",
";1,,;=$O$<&XXXXX+XX+XXXX@*17433,,;$=;;=$$<*176111=22,;=$$<=6111;",
";,===$=$ *XX+X+#+++#+#++X&6:;;;,:$  1:;=o*<3:;;;,2:;;=;=o*1:====",
":=====$=o&X+X+#+#+###+#+#*1;;;,:;OOO3;;;O<12;;;:::;;;;=;O*,====:",
"O======= *X++#+#########+&1;;1;;:;13;=;=o&;=;;;,$;;;;;;;o*O$===;",
"O======$ *X+#+#####+###++*=;;,$$;$=$;;==o&=;=;;$$;;;;;;=o*$====O",
"o==OO==O *+#+###+#+#+###+*=$$$$=;;$;$=;$o&$=;;=OO;;$$;;$o*$OO=$o",
"oooooo  o<&+++++#+#+###+&<$oooOOOOOOOOooO&ooOoooOOOOOOooO<O     ",
"*&********&***&&&*&**&&**&*&&&&&&*&**&<&<*&&&&*******&&&&&*&**&&",
"732212,,,,;=$$<,=,,,,O,-OOO$$O<131111$;;,,;=$$*,6112,,--OOO$$O<1",
";;1:;::;;;:;=o*2:=====;,=O$$= *2:;;;;;;;:;:;=o&=;;;==;,==O$=O <3",
"=;=;;;;;;:;;;O<,==;=======$=$ <1;;,;;;;;;;;;;O*;=;=:;=======O *=",
";=;;;;,$$$=;=o&O=$====$==O$=$o*1:;;;;;;$$$=;=o*;::=:=====$==$ &$",
"=;=;;;$=$;;==o*O$=$=$===$O=$= *=;;;;;;==$;;==o<=:=:==$==$====o&$",
"$=;=;;;$;$=;$o&OO$=$=$==$O$$O *$=;$$$;$$;$=;$o*$====O======== &$",
"oooOoOOOOOOooO*O   ooooooo   o<OoOoOOOoOOOOooO<O o oo o.oo   o&$",
"&**<<*<****&&&&&*&*<<<*<********&*&&&&*****&&&&&*&*&&<*<********",
";=$$<,6111;;1,,;=$OO<37455,,=22,;=$$*17433,,,,,,;=$&<*176111=22,",
"=;=o*1:====;,===$=$ *6:;;;,:2:;;=;=o&6:;;;,::;;;:;=o*<3:;;;,2:;;",
";=;O*,====::=====$=o&1;;;,:;:;;;;=;O*1;;;,:;;;;:;;;O<12;;;:::;;;",
";;;o*O$===;O======= *$=;;;,$;;;;;;;o&1;;1;;:,$$$=;=o&;=;;;,$;;;;",
";;=o*$====OO======$ *=;;,$$$;;;;;;=o*=;;,$$;$=$;;==o&=;=;;$$;;;;",
";;$o*$OO=$oo==OO==O *=$$$$$=;;$$;;$o*=$$$$=;;$;$=;$o&$=;;=OO;;$$",
"OooO<O     oooooo  o< oooOoO  oOOooO<$oooOOOOOOOOooO&$oOoooOOOOO",
"&&&*&**&&**&*&&&&&&*&**&<&<*&&&&*******&&&&&*&**&&*&********&***",
"<131111$1-$$$==$<131111$;;,,;=$$*1766211--$$$==><1732212,,,,;=$$",
"*2:;;;;;,1;$==;o*2:;;;;;;;:;:;=o&3,,,;;,1;;$=;$o<3;;1:;::;;;:;=o",
"<1;;,;;;;;;;=;=o<1;;,;;;;;;;;;;O*,;,;:,;;;;;;;$o*==;=;;;;;;:;;;O",
"&$;=;;;;=;;$=;=O*1:;;;;;;$$$=;=o*,::;:;;;;;=;;=o&$;=;;;;,$$$=;=o",
"*$=;=;=;;;=$;=;o*=;;;;;;==$;;==o<;:;:;;=;;=;;;;O&$=;=;;;$=$;;==o",
"&$$=;=;=;;=$==$o*$=;$$$;$$;$=;$o*=;;;;$;;;;;;;;o&$$=;=;;;$;$=;$o",
"*$oooOOOOOOOoo O<$oOoOOOoOOOOooO<%oOoOOoO.OOoo O&$oooOoOOOOOOooO",
"&&*&*<<<*<********&*&&&&*****&&&&&*&*&&<*<********&**<<*<****&&&",
"1,;=$=<17455,,=22,;=$$*17433,,,,,,;=$$<*,61,,,$22;=$OO<37455,,51",
";;=;=o*6:;;;,:2:;;=;=o&6:;;;,::;;;:;=o*<=:===;2:==$=$ *6:;;;;,1;",
";;;=;O&1;;;,:;:;;;;=;O*1;;;,:;;;;:;;;O<,2===:::====$=o*1;;;;::;;",
";;;;;o*$=;;;,$;;;;;;;o&1;;1;;:,$$$=;=o&=$===;O======= *$=;;;,$;;",
";;;;=o*=;;,$$$;;;;;;=o*=;;,$$;$=$;;==o&$=$==OO======$ *=;;;;$$;;",
"$$;;$ *=$$$$$=;;$$;;$o*=$$$$=;;$;$=;$o&O$==$oo==OO==O *=$$;=OO;;",
"OOOo O<$oooOoO  oOOooO<$oooOOOOOOOOooO&  o   oooooo  o<$oooooOOO",
"****&&&&&*&**&&*&********&***&&&*&**&&**&*&&&&&&*&**&<&<*&&&&***",
"66211--$$$==$<1732212,,,,;=$$<131111$1-$$$==$<,=,,,,O==;;=$OO*17",
",,;;,1;;$=;$o<3;;1:;::;;;:;=o*2:;;;;;,1;$==;o*2:=======:=:=$ &3,",
",;:,;;;;;;;$o*==;=;;;;;;:;;;O<1;;,;;;;;;;=;=o<,==;==========o*,;",
":;:;;;;;=;;=o&$;=;;;;,$$$=;=o&$;=;;;;=;;$=;=O*,:======OOO$=$ *,:",
";:;;=;;=;;;;O&$=;=;;;$=$;;==o*$=;=;=;;;=$;=;o*$======$$O==$$ <;:",
";;;$;;;;;;;;o&$$=;=;;;$;$=;$o&$$=;=;=;;=$==$o*O$=OOO=OO=O$=O *=;",
"OoOOoO.OOoo O&$oooOoOOOOOOooO*$oooOOOOOOOoo O<o o ooo oooo  o<$o"
};
