/* XPM */
static char *s94a3uSqejdbYbG_png[] = {
/* columns rows colors chars-per-pixel */
"64 64 79 1 ",
"  c black",
". c #080807",
"X c #0C0C0B",
"o c #120A09",
"O c #121211",
"+ c #151012",
"@ c #141413",
"# c #171716",
"$ c #191614",
"% c #191918",
"& c #1C1918",
"* c #1C1C1B",
"= c #1A1C1D",
"- c #201C1B",
"; c #28221F",
": c #212120",
"> c #242423",
", c #212424",
"< c #232728",
"1 c #26292A",
"2 c #242D2F",
"3 c #292A28",
"4 c #382B2F",
"5 c #382E2C",
"6 c #2B3031",
"7 c #383335",
"8 c #383739",
"9 c #3D383B",
"0 c #504538",
"q c #343D40",
"w c #383F40",
"e c #3D4446",
"r c #3E474A",
"t c #3D4C4F",
"y c #404043",
"u c #404749",
"i c #464D4F",
"p c #48484C",
"a c #505142",
"s c #59594C",
"d c #455356",
"f c #485457",
"g c #475659",
"h c #4E5A5C",
"j c #605D45",
"k c #66624A",
"l c #796F47",
"z c #74724C",
"x c #686C55",
"c c #7B7953",
"v c #7E7D56",
"b c #72755F",
"n c #505E61",
"m c #526366",
"M c #58686C",
"N c #5C7075",
"B c #62797E",
"V c #AF6212",
"C c #826138",
"Z c #827538",
"A c #B4812D",
"S c #FCA31B",
"D c #FFAD2C",
"F c #FFB62C",
"G c #FFBF2C",
"H c #FFC62C",
"J c #FFD827",
"K c #FFD02C",
"L c #FFDA29",
"P c #918A5A",
"I c #898A64",
"U c #8E8F69",
"Y c #83907D",
"T c #999F7B",
"R c #A19C67",
"E c #BAB77A",
"W c #FBF16F",
"Q c #F8F4A2",
"! c #F5F9ED",
/* pixels */
"6666666666666<6<6<6<<<X 666666<6<6<6<<<<  <<6<6<66666666666<6<66",
"eeeeeeeeeeeeewewewewww@ ieeeeewewewewwww  wweweweeeeeeeeeeewewee",
"wwwwwwwwwwwwwwwwwwwwww@ iwmwwmmmmuwwwmww  wwwwwwwwwwwwwwwwwwwwww",
"wwwwwwwwwwwwwwww7jjwww@ i7fwmpppp97w7fww  ww7jjwwwwwwwwwwwwwwwww",
"wwwwwwwwwwwwwwww4lRwww@ i8wmp4444447ywww Xww4Rlwwwwwwwwwwwwwwwww",
"wwwwwwwwwwwwwwww40xwww@ iwmp44VAAV449uwwX.ww4xawwwwwwwwwwwwwwwww",
"wwwwwwwwwwwwwwww88wwww@ iwB44VSFFSV44Mww.Xww8wwwwwwwwwwwwwwwwwww",
"uuuuuuuuuuuuuuuuuuuuuu-XiwB44SFJJFS44BwwX.uuuuuuuuuuuuuuuuuuuuuu",
"eeeeeeeeeeeeeeeeeeeeee&.iwB44FFQQFF44Bww.Xeeeeeeeeeeeeeeeeeeeeee",
"uuuuuuuuuuuuuuuuuuuuuu-XMuT88HH!!HH88TuuX.uuuuuuuuuuuuuuuuuuuuuu",
"iiiiiiiiiiiiiiiiiiiiii&.neY77GG!!GG77Yee.$iiiiiiiiiiiiiiiiiiiiii",
"iiiiiiiiiiiiiiiiiiiiii-XMuT88HH!!HH88Tuu$&iiiiiiiiiiiiiiiiiiiiii",
"iiiiiiiiiiiiiiiiiiiiii;@BiEwwKK!!KKwwEii&-iiiiiiiiiiiiiiiiiiiiii",
"iiiiiiiiiiiiiiiiiiiiii;@BiEwwKK!!KKwwEii-&iiiiiiiiiiiiiiiiiiiiii",
"iiiiiiiiiiiiiiiiiiiiii;@BiEwwKK!!KKwwEii&-iiiiiiiiiiiiiiiiiiiiii",
"iiiiiiiiiiiiiiiiiiiiii;@BiEwwKK!!KKwwEii-&iiiiiiiiiiiiiiiiiiiiii",
"iiiiiiiiiiiiiiiiiiiiii&@BiEwwKK!!KKwwEii&-iiiiiiiiiiiiiiiiiiiiii",
"iiiiiiiiiiiiiiiiiiiiii-@BiEwwKK!!KKwwEii-;iiiiiiiiiiiiiiiiiiiiii",
"iiiiiiiiiiiiiiiiiiiiii&@MiEwwKK!!KKwwEii&;iiiiiiiiiiiiiiiiiiiiii",
"iiiiiiiiiiiiiiiiiiiiii-@NiEwwKK!!KKwwEii-;iiiiiiiiiiiiiiiiiiiiii",
"iiiiiiiiiiiiiiiiiiiiii&@MiEwwKK!!KKwwEii&;iiiiiiiiiiiiiiiiiiiiii",
"iiiiiiiiiiiiiiiiiiiiii-@NiEwwKK!!KKwwEii-;iiiiiiiiiiiiiiiiiiiiii",
"iiiiiiiiiiiiiiiiiiiiii&@MiEwwKK!!KKwwEii&;iiiiiiiiiiiiiiiiiiiiii",
"iiiiiiiiiiiiiiiiiiiiii@@miEwwKK!!KKwwEii@;iiiiiiiiiiiiiiiiiiiiii",
"iiiiiiiiiiiiiiiiiiiiii@@miEwwKK!!KKwwEii@;iiiiiiiiiiiiiiiiiiiiii",
"iiiiiiiiiiiiiiiiiiiiii@@miEwwKK!!KKwwEii@;iiiiiiiiiiiiiiiiiiiiii",
"iiiiiiiiiiiiiiiiiiiiii@@miEwwKK!!KKwwEii-;iiiiiiiiiiiiiiiiiiiiii",
"iiiiiiiiiiiiiiiiiiiiii@@fiEwwKK!!KKwwEii&;iiiiiiiiiiiiiiiiiiiiii",
"iiiiiiiiiiiiiiiiiiiiii@@hiEwwKK!!KKwwEii-;iiiiiiiiiiiiiiiiiiiiii",
"iiiiiiiiiiiiiiiiiiiiii@@fiYwwKK!!KKwwEii&;iiiiiiiiiiiiiiiiiiiiii",
"iiiiiiiiiiiiiiiiiiiiii@-hiTwwKKWWKKwwEii-;iiiiiiiiiiiiiiiiiiiiii",
"iiiiiiiiiiiiiiiiiiiiii-&fiYwwDKLLKDwwEii;;iiiiiiiiiiiiiiiiiiiiii",
"iiiiiiiiiiiiiiii9kUiii&-iiBwwCDKKDCwwEii;;ii9Ukiiiiiiiiiiiiiiiii",
"iiiiiiiiiiiiiiii4lPiii-&iinmwwCZZCwwIbii;;ii4Pliiiiiiiiiiiiiiiii",
"iiiiiiiiiiiiiiii40siii&-iiinmwwwwwwIbiii;;ii40siiiiiiiiiiiiiiiii",
"iiiiiiiiiiiiiiiiyyiiii-;iikinmImIIIbikii;;iiyyiiiiiiiiiiiiiiiiii",
"MMMMMMMMMMMMMMMMMMMiMi;;i9siinbnbbbi9sii;;MMiMMMMMMiMiMiMiMMMMMM",
"2222222222222222222=2=X;iyiiiiiiiiiiyiii;X22=222222=2=2=2=222222",
"                       XiiMMMMMMMMMMiMiiX                       ",
"OX XOXXXOX XOXXXOX XOX  ==2222222222=2==   XOXXXOX XOXXXOX XOXXX",
">@ :>%@:>@ :>%@:>@ :>%X                  X :>%@:>@ :>%@:>@ :>%@:",
"3@ 33*%33@ 33*%33@ 33*%%XX XOXXXOX XOXXXO@ 33*%33@ 33*%33@ 33*%3",
"3@ 33**33@ 33**33@ 33**3:@ :>%%:>@ :>%%:>@ 33**33@ 33**33@ 33**3",
"3%X33**33%X33**33%X33**33%X33**33%X33**33%X33**33%X33**33%X33**3",
"3#.33**33#.33**33#.33**33#.33**33#.33**33#.33**33#.33**33#.33**3",
"3%X33**33%X33**33%X33**33%X33**33%X33**33%X33**33%X33**33%X33**3",
"3*.33**33*.33**33*.33**33*.33**33*.33**33*.33**33*.33**33*.33**3",
"3*X33**33*X33**33*X33**33*X33**33*X33**33*X33**33*X33**33*X33**3",
"3*@33**33*@33**33*@33**33*@33**33*@33**33*@33**33*@33**33*@33**3",
"3#@33**33#@3:**33#@33**33#@3:**33#@33**33#@3:**33#@33**33#@3:**3",
"3%@33**33%@3>**33%@33**33%@3>**33%@33**33%@3>**33%@33**33%@3>**3",
":#.3:**3:#.3:**3:#.3:**3:#.3:**3:#.3:**3:#.3:**3:#.3:**3:#.3:**3",
">@X:>**3>@X:>**3>@X:>**3>@X:>**3>@X:>**3>@X:>**3>@X:>**3>@X:>**3",
":@.>:*#3:@.>:*#3:@.>:*#3:@.>:*#3:@.>:*#3:@.>:*#3:@.>:*#3:@.>:*#3",
"*. :*#.:*. :*#.:*. :*#.:*. :*#.:*. :*#.:*. :*#.:*. :*#.:*. :*#.:",
"gttggdtggqtvgcqvrzzvvczvvzzvvczvvzzvvczvvzzvvdzgvtzggdtggqtggdqg",
"nnnnnnnnffnbnbfbfbbbbbbbbxbbbbbbbbbbbbbxbxbbbnbnxnxnnnnnffnnnnfn",
"ieiiiiieuiiiiiiiiiiiiiieeuiiiiiiiiiiiiiueuiiiiiiueuiiiieuiiiiiii",
"euiMeiiuiiiMeiiiiiikeiiwuiikeiiiiiikeiieuiikeiiieuiMeiiuiiiMeiii",
"ui9fwiiiii9fwiiiii9awieuei9awiiiii9awiiuii9awiieui9fwiiiii9fwiie",
"ei47uiiiii47uiiiii47uiueui47uiiiii47uiiiii47uiewii47uiiiii47uieu",
"uiyyiiiiiiyyiiiiiiyyiieuiiyyiiiiiiyyeiiiiiyyiiwuiiyyiiiiiiyyieue",
"9555555959599999995959,91911119199997999595995759555555959599797",
"+oooooo+o+o+++++++o+o+.+.+....+.++++++++o+o++o+o+oooooo+o+o+++++"
};
