/* XPM */
static char *s94aNa4M17KDDy9_png[] = {
/* columns rows colors chars-per-pixel */
"64 64 67 1 ",
"  c black",
". c #090908",
"X c #101112",
"o c #141413",
"O c #191716",
"+ c #1A1C1F",
"@ c #322200",
"# c #3C2B08",
"$ c #2E2614",
"% c #3E3215",
"& c #1F2020",
"* c #232423",
"= c #212425",
"- c #242527",
"; c #252B2E",
": c #2A2E31",
"> c #2D3235",
", c #2E373C",
"< c #353736",
"1 c #31373A",
"2 c #41300D",
"3 c #533800",
"4 c #4B3A16",
"5 c #63480D",
"6 c #624912",
"7 c #6A4F15",
"8 c #714F19",
"9 c #6C5015",
"0 c #735615",
"q c #73591F",
"w c #5C4F2D",
"e c #6E5A24",
"r c #74593A",
"t c #7E6931",
"y c #363E43",
"u c #414441",
"i c #444543",
"p c #4A4F4D",
"a c #404D52",
"s c #555B5B",
"d c #575D59",
"f c #585F5D",
"g c #696244",
"h c #495960",
"j c #5F6461",
"k c #5C6968",
"l c #616662",
"z c #6D6466",
"x c #6C6863",
"c c #676E6C",
"v c #6A736D",
"b c #626F72",
"n c #6C7471",
"m c #697678",
"M c #727E7D",
"N c #855A00",
"B c #8E6308",
"V c #956A0D",
"C c #846115",
"Z c #9F7315",
"A c #7D8376",
"S c #7A817D",
"D c #A98125",
"F c #83897F",
"G c #868D86",
"H c #8C948F",
"J c #979F9A",
/* pixels */
"+     +;+     +;+     +;+     +;+     +;+     +;+     +;+     +;",
"&     y1&     y1&     y1&     y1&     y1&     y1&     y1&     y1",
"-,   ,1&-,   ,1&-,   ,1&-,   ,1&-,   ,1&-,   ,1&-,   ,1&-,   ,1&",
"&y, ,y&.&y, ,y&.&y, ,y&.&y, ,y&.&y, ,y&.&y, ,y&.&y, ,y&.&y, ,y&.",
".&y,y&. .&y,y&. .&y,y&. .&y,y&. .&y,y&. .&y,y&. .&y,y&. .&y,y&. ",
" .:a:.   .:a:.   .:a:.   .:a:.   .:a:.   .:a:.   .:a:.   .:a:.  ",
"  y1&     y1&     y1&     y1&     y1&     y1&     y1&     y1&   ",
" ,1&-,   ,1&-,   ,1&-,   ,1&-,   ,1&-,   ,1&-,   ,1&-,   ,1&-,  ",
",y&.&y, ,y&.&y, ,y&.&y, ,y&.&y, ,y&.&y, ,y&.&y, ,y&.&y, ,y&.&y, ",
"y&. .&y,y&. .&y,y&. .&y,y&. .&y,y&. .&y,y&. .&y,y&. .&y,y&. .&y,",
":.   .:a:.   .:a:.   .:a:.   .:a:.   .:a:.   .:a:.   .:a:.   .:a",
"&     y1&     y1&     y1&     y1&     y1&     y1&     y1&     y1",
"-,   ,1&-,   ,1&-,   ,1&-,   ,1&-,   ,1X-,   ,1&-,   =1&-,   ,1&",
"&y, ,y&.&y, ,y&.&y, ,y&.&y, ,y&.&y, ,y& &y, ,y&.&y, ,>&.&y, ,y&.",
".&y,y&. .&y,y&. .&y,y&. .&y,y&. .&y,y&. .&y,y&. .&y,y&. .&y,y&. ",
" .:a:.   .:a:.   .:a:.   .:a:.   .:a:.   .:a:.   .:a:.   .:a:.  ",
"  y1&     y1&     y1&     y1&     y1&     y1&     y1&     y1&   ",
" ,1&-,   ,1&-,   ,1&-,   ,1&-,   ,1&-,   ,1&-,   ,1&-,   ,1&-,  ",
",y&.&y, ,y&ucMdddMclcMdddMclcMdddMclph 35tq9qt555tq96y, ,y&.&y, ",
"y&. .&y,y&.SbHHHHHHHHHHHHHHHHHHHFHHbSy,VZZZZZZZZZZZZV&y,y&. .&y,",
":.   .:a:. HvHHHHHHHHHHHHHHHHHHJkHHvH:aZZZZZZZZZZZZZZ.:a:.   .:a",
"&     y1&  HAHffufuHufHuufHHHHJzvHHAHy1ZZZZZZ444ZZZZZ y1&     y1",
"-,   ,1&-, HGHnnjnjHjnHjjnHHHHmxAHHAH1XZZZZZ0oo7ZZZZZ,1&-,   ,1&",
"&y, ,y&.&y,HHHufHffufHHHHHHHHHMAGHHGH& ZDgZZ$o7ZZZZZZy&.&y, ,y&.",
".&y,y&. .&yHHHjnHnnjnHHHHHHHHHHAFHHFH. ZreZ0oo440ZZZZ&. .&y,y&. ",
" .:a:.   .:HHHHHHHHHHHHHHHHHHHHAGHHGH  Z8NZC77%oCZZZZ.   .:a:.  ",
"  y1&     yHHHHHHHHHHHHHHHHHHHHGFHHHH  ZNVZZZZ$7ZZZZZ     y1&   ",
" ,1&-,   ,1HHHuufuHuHHHHHHHHHHHFGHHHH  ZVBZZZ4o4ZZZZZ,   ,1&-,  ",
",y&.&y, ,y&HHHjjnjHjHHHHHHHHHHHGHHHHH, ZBVZZZ7o7ZZZZZy, ,y&.&y, ",
"y&. .&y,y&.HHHuHfHHHHHHHHHHHHHHFHHHHHy,ZVZZZZZ7ZZZZZZ&y,y&. .&y,",
":.   .:a:. HbHjHnHHHHHHHHHHHHHHGHHHbH:aZBZZZZZZZZZZZZ.:a:.   .:a",
"&     y1&  nMHHHHHHHHHHHHHHHHHHHHHHMny1BVZZZZZZZZZZZB y1&     y1",
"-,   ,1&-, *<siuis<<<siuis<<<siuis<<*y:24w###w444w##@,1&-,   ,1&",
"&y, ,y&.&y, ,>O.O>, ,>O.O>, ,>O.O>, ,>&.O>, ,>O.O>, ,y&.&y, ,y&.",
".&y,y&. .&y,y&. .&y,y&. .&y,y&. .&y,y&. .&y,y&. .&y,y&. .&y,y&. ",
" .:a:.   .:a:.   .:a:.   .:a:.   .:a:.   .:a:.   .:a:.   .:a:.  ",
"  y1&     y1&     y1&     y1&     y1&     y1&     y1&     y1&   ",
" ,1&-,   ,1&-,   ,1&-,   ,1&-,   ,1&-,   ,1&-,   ,1&-,   ,1&-,  ",
",y&.&y, ,y&.&y, ,y&.&y, ,y&.&y, ,y&.&y, ,y&.&y, ,y&.&y, ,y&.&y, ",
"y&. .&y,y&. .&y,y&. .&y,y&. .&y,y&. .&y,y&. .&y,y&. .&y,y&. .&y,",
":.   .:a:.   .:a:.   .:a:.   .:a:.   .:a:.   .:a:.   .:a:.   .:a",
"&     y1&     y1&     y1&     y1&     y1&     y1&     y1&     y1",
"-,   ,1&-,   ,1&-,   ,1&-,   ,1&-,   ,1&-,   ,1&-,   ,1&-,   ,1&",
"&y, ,y&.&y, ,y&.&y, ,y&.&y, ,y&.&y, ,y&.&y, ,y&.&y, ,y&.&y, ,y&.",
".&y,y&. .&y,y&. .&y,y&. .&y,y&. .&y,y&. .&y,y&. .&y,y&. .&y,y&. ",
" .:a:.   .:a:.   .:a:.   .:a:.   .:a:.   .:a:.   .:a:.   .:a:.  ",
"  y1&     y1&     y1&     y1&     y1&     y1&     y1&     y1&   ",
" ,1&-,   ,1&-,   ,1&-,   ,1&-,   ,1&-,   ,1&-,   ,1&-,   ,1&-,  ",
",y&.&y, ,y&.&y, ,y&.&y, ,y&.&y, ,y&.&y, ,y&.&y, ,y&.&y, ,y&.&y, ",
"y&. .&y,y&. .&y,y&. .&y,y&. .&y,y&. .&y,y&. .&y,y&. .&y,y&. .&y,",
":.   .:a:.   .:a:.   .:a:.   .:a:.   .:a:.   .:a:.   .:a:.   .:a",
"&     y1&     y1&     y1&     y1&     y1&     y1&     y1&     y1",
"-,   ,1&-,   ,1&-,   ,1&-,   ,1&-,   ,1&-,   ,1&-,   ,1&-,   ,1&",
"&y, ,y&.&y, ,y&.&y, ,y&.&y, ,y&.&y, ,y&.&y, ,y&.&y, ,y&.&y, ,y&.",
".&y,y&. .&y,y&. .&y,y&. .&y,y&. .&y,y&. .&y,y&. .&y,y&. .&y,y&. ",
" .:a:.   .:a:.   .:a:.   .:a:.   .:a:.   .:a:.   .:a:.   .:a:.  ",
"  y1&     y1&     y1&     y1&     y1&     y1&     y1&     y1&   ",
" ,1&-,   ,1&-,   ,1&-,   ,1&-,   ,1&-,   ,1&-,   ,1&-,   ,1&-,  ",
",y&.&y, ,y&.&y, ,y&.&y, ,y&.&y, ,y&.&y, ,y&.&y, ,y&.&y, ,y&.&y, ",
"y&. .&y,y&. .&y,y&. .&y,y&. .&y,y&. .&y,y&. .&y,y&. .&y,y&. .&y,",
":.   .:a:.   .:a:.   .:a:.   .:a:.   .:a:.   .:a:.   .:a:.   .:a",
"&     y1&     y1&     y1&     y1&     y1&     y1&     y1&     y1",
"-,   ,1&-,   ,1&-,   ,1&-,   ,1&-,   ,1&-,   ,1&-,   ,1&-,   ,1&",
"&y, ,y&.&y, ,y&.&y, ,y&.&y, ,y&.&y, ,y&.&y, ,y&.&y, ,y&.&y, ,y&."
};
